<svg width="44" height="44" viewBox="0 0 44 44" fill="none" xmlns="http://www.w3.org/2000/svg">
<path d="M44 22C44.0024 24.8897 43.4349 27.7516 42.3302 30.4218C41.2254 33.0921 39.605 35.5183 37.5616 37.5616C35.5183 39.605 33.0921 41.2254 30.4218 42.3302C27.7516 43.4349 24.8897 44.0024 22 44L22 40C25.5618 40.0012 29.0439 38.946 32.0059 36.9679C34.9678 34.9899 37.2766 32.1778 38.6402 28.8874C40.0038 25.5969 40.3609 21.976 39.6663 18.4827C38.9717 14.9893 37.2567 11.7804 34.7382 9.26183C32.2196 6.74328 29.0107 5.02825 25.5173 4.33368C22.0239 3.63911 18.403 3.99619 15.1126 5.35977C11.8222 6.72334 9.01012 9.03215 7.03206 11.9941C5.05399 14.9561 3.99881 18.4382 4 22L-9.61651e-07 22C-1.2167e-06 16.1652 2.31785 10.5694 6.44365 6.44364C10.5694 2.31784 16.1652 -8.336e-06 22 -8.59105e-06C27.8348 -8.84609e-06 33.4305 2.31784 37.5563 6.44364C41.6822 10.5694 44 16.1652 44 22Z" fill="#D0D0CE"/>
<path d="M22.0049 44.0039C19.1151 44.0063 16.2533 43.4388 13.5831 42.3341C10.9128 41.2293 8.48662 39.6089 6.44326 37.5655C4.3999 35.5222 2.77948 33.096 1.67472 30.4257C0.569954 27.7555 0.00252294 24.8937 0.00489019 22.0039H4.00489C4.0037 25.5657 5.05888 29.0478 7.03695 32.0098C9.01502 34.9718 11.8271 37.2806 15.1175 38.6441C18.4079 40.0077 22.0288 40.3648 25.5222 39.6702C29.0156 38.9756 32.2245 37.2606 34.7431 34.7421C37.2616 32.2235 38.9766 29.0146 39.6712 25.5212C40.3658 22.0278 40.0087 18.4069 38.6451 15.1165C37.2815 11.8261 34.9727 9.01403 32.0107 7.03596C29.0488 5.0579 25.5667 4.00272 22.0049 4.00391V0.00390625C27.8397 0.00390625 33.4354 2.32176 37.5612 6.44756C41.687 10.5734 44.0049 16.1691 44.0049 22.0039C44.0049 27.8387 41.687 33.4345 37.5612 37.5603C33.4354 41.6861 27.8397 44.0039 22.0049 44.0039Z" fill="#2F78C4"/>
</svg>
